<svg width="167" height="241" viewBox="0 0 167 241" fill="none" xmlns="http://www.w3.org/2000/svg">
<mask id="mask0_2_216" style="mask-type:alpha" maskUnits="userSpaceOnUse" x="73" y="153" width="35" height="33">
<path d="M75.6824 169.641C80.8586 161.178 98.8549 155.489 107.585 153.341C104.265 162.961 96.5329 180.524 88.7484 184.221C78.4073 189.133 69.2123 180.22 75.6824 169.641Z" fill="#849A72"/>
</mask>
<g mask="url(#mask0_2_216)">
<path d="M75.6824 169.641C80.8586 161.178 98.8549 155.489 107.585 153.341C104.265 162.961 96.5329 180.524 88.7484 184.221C78.4073 189.133 69.2123 180.22 75.6824 169.641Z" fill="#849A72"/>
<path d="M107.577 153.354C101.314 160.494 86.388 176.496 76.7928 183.386" stroke="#145855" stroke-width="0.8" stroke-linecap="round" stroke-linejoin="round"/>
<path d="M74.7652 171.697L88.4601 173.154L90.9624 182.492" stroke="#145855" stroke-width="0.8" stroke-linecap="round" stroke-linejoin="round"/>
<path d="M81.2535 164.418L95.6777 166.055L98.3049 173.091" stroke="#145855" stroke-width="0.8" stroke-linecap="round" stroke-linejoin="round"/>
<path d="M92.0596 158.536L101.827 159.615L103.034 164.122" stroke="#145855" stroke-width="0.8" stroke-linecap="round" stroke-linejoin="round"/>
</g>
<mask id="mask1_2_216" style="mask-type:alpha" maskUnits="userSpaceOnUse" x="31" y="128" width="57" height="30">
<path d="M39.6525 133.114C52.0362 125.847 76.6113 128.34 87.3509 130.494C77.3909 139.89 66.1331 154.715 48.4041 156.908C32.2392 158.907 24.1729 142.197 39.6525 133.114Z" fill="#849A72"/>
</mask>
<g mask="url(#mask1_2_216)">
<path d="M39.6525 133.114C52.0362 125.847 76.6113 128.34 87.3509 130.494C77.3909 139.89 66.1331 154.715 48.4041 156.908C32.2392 158.907 24.1729 142.197 39.6525 133.114Z" fill="#849A72"/>
<path d="M86.9087 130.717C71.2511 135.49 43.4775 143.43 32.1164 148.269" stroke="#145855" stroke-width="0.8" stroke-linecap="round" stroke-linejoin="round"/>
<path d="M53.3921 129.073L64.4588 137.48L65.0347 150.594" stroke="#145855" stroke-width="0.8" stroke-linecap="round" stroke-linejoin="round"/>
<path d="M39.1192 133.698L49.8443 141.879L47.9552 156.542" stroke="#145855" stroke-width="0.8" stroke-linecap="round" stroke-linejoin="round"/>
<path d="M68.8732 128.646L76.4062 133.827L76.5522 141.18" stroke="#145855" stroke-width="0.8" stroke-linecap="round" stroke-linejoin="round"/>
</g>
<mask id="mask2_2_216" style="mask-type:alpha" maskUnits="userSpaceOnUse" x="20" y="84" width="57" height="31">
<path d="M38.2252 86.0143C52.9673 90.4536 69.6049 104.98 76.081 111.688C63.9776 114.285 37.2325 117.354 27.0794 108.845C14.388 98.2095 19.7976 80.465 38.2252 86.0143Z" fill="#849A72"/>
</mask>
<g mask="url(#mask2_2_216)">
<path d="M38.2252 86.0143C52.9673 90.4536 69.6049 104.98 76.081 111.688C63.9776 114.285 37.2325 117.354 27.0794 108.845C14.388 98.2095 19.7976 80.465 38.2252 86.0143Z" fill="#849A72"/>
<path d="M76.4973 111.762C61.5048 107.463 29.0386 97.3205 19.1144 91.1409" stroke="#145855" stroke-width="0.8" stroke-linecap="round" stroke-linejoin="round"/>
<path d="M54.8075 114.9L63.3838 107.761L60.7614 97.9741" stroke="#145855" stroke-width="0.8" stroke-linecap="round" stroke-linejoin="round"/>
<path d="M39.8977 114.059L51.9267 104.045L47.6424 88.0562" stroke="#145855" stroke-width="0.8" stroke-linecap="round" stroke-linejoin="round"/>
<path d="M23.8092 107.555L37.2928 99.0232L32.9523 82.8245" stroke="#145855" stroke-width="0.8" stroke-linecap="round" stroke-linejoin="round"/>
</g>
<mask id="mask3_2_216" style="mask-type:alpha" maskUnits="userSpaceOnUse" x="36" y="16" width="35" height="69">
<path d="M36.554 33.412C35.6294 52.0979 55.4507 75.4648 65.477 84.8125C68.6968 74.172 73.5732 48.8613 67.3203 32.7433C59.5042 12.5957 37.7096 10.0546 36.554 33.412Z" fill="#849A72"/>
</mask>
<g mask="url(#mask3_2_216)">
<path d="M36.554 33.412C35.6294 52.0979 55.4507 75.4648 65.477 84.8125C68.6968 74.172 73.5732 48.8613 67.3203 32.7433C59.5042 12.5957 37.7096 10.0546 36.554 33.412Z" fill="#849A72"/>
<path d="M46.358 15.355C48.2003 33.193 62.5673 78.8443 66.3722 86.426" stroke="#145855" stroke-width="0.8" stroke-linecap="round" stroke-linejoin="round"/>
<path d="M49.129 68.6208L60.648 70.7145L71.0641 62.7433" stroke="#145855" stroke-width="0.8" stroke-linecap="round" stroke-linejoin="round"/>
<path d="M41.0266 53.8483L56.1279 56.1101L70.5352 43.2571" stroke="#145855" stroke-width="0.8" stroke-linecap="round" stroke-linejoin="round"/>
<path d="M34.6524 37.5619L51.7327 41.1371L64.9816 26.3556" stroke="#145855" stroke-width="0.8" stroke-linecap="round" stroke-linejoin="round"/>
</g>
<mask id="mask4_2_216" style="mask-type:alpha" maskUnits="userSpaceOnUse" x="70" y="49" width="39" height="50">
<path d="M84.7835 56.1846C73.9577 66.7991 70.7024 88.9656 70.428 98.7221C79.1164 95.0107 98.333 84.0682 105.692 69.9888C114.89 52.3894 98.3156 42.9165 84.7835 56.1846Z" fill="#849A72"/>
</mask>
<g mask="url(#mask4_2_216)">
<path d="M84.7835 56.1846C73.9577 66.7991 70.7024 88.9656 70.428 98.7221C79.1164 95.0107 98.333 84.0682 105.692 69.9888C114.89 52.3894 98.3156 42.9165 84.7835 56.1846Z" fill="#849A72"/>
<path d="M69.9022 98.9171C78.5893 87.4247 97.8398 61.7832 104.192 50.0059" stroke="#145855" stroke-width="0.8" stroke-linecap="round" stroke-linejoin="round"/>
<path d="M72.0696 78.5564L77.0721 89.0236L88.6399 89.4129" stroke="#145855" stroke-width="0.8" stroke-linecap="round" stroke-linejoin="round"/>
<path d="M77.3661 65.4529L84.9484 78.1588L101.684 77.3879" stroke="#145855" stroke-width="0.8" stroke-linecap="round" stroke-linejoin="round"/>
<path d="M86.023 53.1534L94.1675 65.3606L108.815 63.7455" stroke="#145855" stroke-width="0.8" stroke-linecap="round" stroke-linejoin="round"/>
</g>
<mask id="mask5_2_216" style="mask-type:alpha" maskUnits="userSpaceOnUse" x="82" y="83" width="52" height="41">
<path d="M107.471 87.8437C94.6463 97.1091 85.7326 115.154 82.8788 123.018C92.9501 122.374 116.112 118.073 128.19 106.019C143.287 90.951 123.502 76.262 107.471 87.8437Z" fill="#849A72"/>
</mask>
<g mask="url(#mask5_2_216)">
<path d="M107.471 87.8437C94.6463 97.1091 85.7326 115.154 82.8788 123.018C92.9501 122.374 116.112 118.073 128.19 106.019C143.287 90.951 123.502 76.262 107.471 87.8437Z" fill="#849A72"/>
<path d="M81.9591 123.491C94.9346 114.76 122.9 94.912 130.955 85.3715" stroke="#145855" stroke-width="0.8" stroke-linecap="round" stroke-linejoin="round"/>
<path d="M90.858 104.229L92.8936 115.892L105.954 119.302" stroke="#145855" stroke-width="0.8" stroke-linecap="round" stroke-linejoin="round"/>
<path d="M102.371 90.4957L105.606 106.809L122.689 111.745" stroke="#145855" stroke-width="0.8" stroke-linecap="round" stroke-linejoin="round"/>
</g>
<mask id="mask6_2_216" style="mask-type:alpha" maskUnits="userSpaceOnUse" x="100" y="125" width="26" height="21">
<path d="M114.789 126.845C107.966 130.323 102.2 140.667 100.17 145.404C104.053 145.532 114.917 143.124 120.871 138.001C129.921 130.214 123.316 122.497 114.789 126.845Z" fill="#849A72"/>
</mask>
<g mask="url(#mask6_2_216)">
<path d="M114.789 126.845C107.966 130.323 102.2 140.667 100.17 145.404C104.053 145.532 114.917 143.124 120.871 138.001C129.921 130.214 123.316 122.497 114.789 126.845Z" fill="#849A72"/>
<path d="M99.5878 145.878C104.921 142.767 117.391 134.57 124.607 126.666" stroke="#145855" stroke-width="0.8" stroke-linecap="round" stroke-linejoin="round"/>
<path d="M106.628 133.531L107.991 140.498L115.213 142.229" stroke="#145855" stroke-width="0.8" stroke-linecap="round" stroke-linejoin="round"/>
<path d="M112.94 127.311L115.007 135.024L122.806 137.032" stroke="#145855" stroke-width="0.8" stroke-linecap="round" stroke-linejoin="round"/>
</g>
<path d="M148.882 180.028C115.453 164.269 80.8323 136.768 65.1678 83.6694" stroke="#849A72" stroke-width="1.5" stroke-linecap="round" stroke-linejoin="round"/>
<mask id="mask7_2_216" style="mask-type:alpha" maskUnits="userSpaceOnUse" x="133" y="184" width="27" height="34">
<path d="M136.65 202.495C143.524 192.454 154.438 186.247 159.501 184.455C159.21 189.627 157.658 198.662 151.42 209.708C143.623 223.516 126.639 217.117 136.65 202.495Z" fill="#849A72"/>
</mask>
<g mask="url(#mask7_2_216)">
<path d="M136.65 202.495C143.524 192.454 154.438 186.247 159.501 184.455C159.21 189.627 157.658 198.662 151.42 209.708C143.623 223.516 126.639 217.117 136.65 202.495Z" fill="#849A72"/>
<path d="M159.159 185.182C153.341 194.231 140.327 213.652 134.815 218.945" stroke="#145855" stroke-width="0.8" stroke-linecap="round" stroke-linejoin="round"/>
<path d="M132.362 208.023L144.154 207.301L146.743 216.967" stroke="#145855" stroke-width="0.8" stroke-linecap="round" stroke-linejoin="round"/>
<path d="M138.157 197.924L149.247 199.43L152.119 210.147" stroke="#145855" stroke-width="0.8" stroke-linecap="round" stroke-linejoin="round"/>
</g>
<mask id="mask8_2_216" style="mask-type:alpha" maskUnits="userSpaceOnUse" x="135" y="145" width="15" height="30">
<path d="M135.773 153.542C134.658 161.588 136.851 170.684 138.087 174.226C142.118 171.066 150.989 160.046 149.319 151.886C147.231 141.685 137.166 143.485 135.773 153.542Z" fill="#849A72"/>
</mask>
<g mask="url(#mask8_2_216)">
<path d="M135.773 153.542C134.658 161.588 136.851 170.684 138.087 174.226C142.118 171.066 150.989 160.046 149.319 151.886C147.231 141.685 137.166 143.485 135.773 153.542Z" fill="#849A72"/>
<path d="M137.654 174.539C139.375 167.908 143.196 152.545 144.712 144.14" stroke="#145855" stroke-width="0.8" stroke-linecap="round" stroke-linejoin="round"/>
<path d="M134.893 159.629L139.814 165.497L147.956 162.662" stroke="#145855" stroke-width="0.8" stroke-linecap="round" stroke-linejoin="round"/>
</g>
</svg>
