<svg width="426" height="360" viewBox="0 0 426 360" fill="none" xmlns="http://www.w3.org/2000/svg">
<mask id="mask0_2_156" style="mask-type:alpha" maskUnits="userSpaceOnUse" x="102" y="188" width="67" height="48">
<path d="M126.742 189.899C143.182 194.753 160.725 222.245 168.213 235.854C150.673 234.616 117.904 229.565 108.251 218.226C95.4281 203.164 106.192 183.831 126.742 189.899Z" fill="#849A72"/>
</mask>
<g mask="url(#mask0_2_156)">
<path d="M126.742 189.899C143.182 194.753 160.725 222.245 168.213 235.854C150.673 234.616 117.904 229.565 108.251 218.226C95.4281 203.164 106.192 183.831 126.742 189.899Z" fill="#849A72"/>
<path d="M168.189 235.848C153.471 228.587 120.088 210.832 104.298 197.899" stroke="#145855" stroke-width="0.8" stroke-linecap="round" stroke-linejoin="round"/>
<path d="M122.901 189.287L126.594 212.796L112.127 221.148" stroke="#145855" stroke-width="0.8" stroke-linecap="round" stroke-linejoin="round"/>
<path d="M137.951 196.861L141.67 221.667L131.101 229.198" stroke="#145855" stroke-width="0.8" stroke-linecap="round" stroke-linejoin="round"/>
<path d="M152.601 212.266L155.167 229.05L148.185 233.081" stroke="#145855" stroke-width="0.8" stroke-linecap="round" stroke-linejoin="round"/>
</g>
<mask id="mask1_2_156" style="mask-type:alpha" maskUnits="userSpaceOnUse" x="133" y="104" width="65" height="88">
<path d="M171.593 113.43C189.259 130.849 196.089 172.979 197.297 191.867C177.16 179.445 147.383 167.286 135.795 138.677C125.229 112.592 149.511 91.6565 171.593 113.43Z" fill="#849A72"/>
</mask>
<g mask="url(#mask1_2_156)">
<path d="M171.593 113.43C189.259 130.849 196.089 172.979 197.297 191.867C177.16 179.445 147.383 167.286 135.795 138.677C125.229 112.592 149.511 91.6565 171.593 113.43Z" fill="#849A72"/>
<path d="M196.726 191.228C181.759 167.23 156.086 124.427 142.929 107.63" stroke="#145855" stroke-width="0.8" stroke-linecap="round" stroke-linejoin="round"/>
<path d="M184.482 134.554L175.4 156.784L153.77 163.61" stroke="#145855" stroke-width="0.8" stroke-linecap="round" stroke-linejoin="round"/>
<path d="M170.379 112.801L161.522 134.36L136.205 137.764" stroke="#145855" stroke-width="0.8" stroke-linecap="round" stroke-linejoin="round"/>
<path d="M192.118 160.201L186.839 175.091L174.632 178.623" stroke="#145855" stroke-width="0.8" stroke-linecap="round" stroke-linejoin="round"/>
</g>
<mask id="mask2_2_156" style="mask-type:alpha" maskUnits="userSpaceOnUse" x="203" y="63" width="47" height="102">
<path d="M249.564 89.9845C248.747 116.574 231.944 150.839 223.644 164.647C213.896 145.608 196.814 102.343 206.474 81.5923C218.55 55.6541 250.585 56.7473 249.564 89.9845Z" fill="#849A72"/>
</mask>
<g mask="url(#mask2_2_156)">
<path d="M249.564 89.9845C248.747 116.574 231.944 150.839 223.644 164.647C213.896 145.608 196.814 102.343 206.474 81.5923C218.55 55.6541 250.585 56.7473 249.564 89.9845Z" fill="#849A72"/>
<path d="M223.706 165.375C224.176 138.43 226.585 79.7085 232.461 60.3813" stroke="#145855" stroke-width="0.8" stroke-linecap="round" stroke-linejoin="round"/>
<path d="M208.768 130.578L224.519 141.699L239.681 132.946" stroke="#145855" stroke-width="0.8" stroke-linecap="round" stroke-linejoin="round"/>
<path d="M203.505 105.317L225.597 120.916L250.367 106.615" stroke="#145855" stroke-width="0.8" stroke-linecap="round" stroke-linejoin="round"/>
<path d="M207.165 75.5574L227.435 94.2458L252.529 79.7576" stroke="#145855" stroke-width="0.8" stroke-linecap="round" stroke-linejoin="round"/>
</g>
<mask id="mask3_2_156" style="mask-type:alpha" maskUnits="userSpaceOnUse" x="263" y="62" width="108" height="73">
<path d="M336.609 63.6709C305.009 70.4844 274.874 114.016 263.757 134.93C282.956 135.545 327.38 132.365 351.484 114.721C381.615 92.6657 376.11 55.1541 336.609 63.6709Z" fill="#849A72"/>
</mask>
<g mask="url(#mask3_2_156)">
<path d="M336.609 63.6709C305.009 70.4844 274.874 114.016 263.757 134.93C282.956 135.545 327.38 132.365 351.484 114.721C381.615 92.6657 376.11 55.1541 336.609 63.6709Z" fill="#849A72"/>
<path d="M371.131 71.9589C342.183 83.0108 272.416 127.405 261.464 137.146" stroke="#145855" stroke-width="0.8" stroke-linecap="round" stroke-linejoin="round"/>
<path d="M283.469 100.404L285.126 120.566L303.088 134.386" stroke="#145855" stroke-width="0.8" stroke-linecap="round" stroke-linejoin="round"/>
<path d="M304.502 80.2752L307.48 106.491L335.375 124.789" stroke="#145855" stroke-width="0.8" stroke-linecap="round" stroke-linejoin="round"/>
<path d="M328.833 62.3534L330.504 92.4591L361.1 107.961" stroke="#145855" stroke-width="0.8" stroke-linecap="round" stroke-linejoin="round"/>
</g>
<mask id="mask4_2_156" style="mask-type:alpha" maskUnits="userSpaceOnUse" x="242" y="145" width="96" height="52">
<path d="M320.17 154.35C297.614 141.029 259.162 145.509 242.756 149.414C252.835 162.255 279.692 189.434 306.482 195.419C339.968 202.901 348.367 171.001 320.17 154.35Z" fill="#849A72"/>
</mask>
<g mask="url(#mask4_2_156)">
<path d="M320.17 154.35C297.614 141.029 259.162 145.509 242.756 149.414C252.835 162.255 279.692 189.434 306.482 195.419C339.968 202.901 348.367 171.001 320.17 154.35Z" fill="#849A72"/>
<path d="M242.195 148.624C265.261 157.983 316.665 178.645 339.162 183.979" stroke="#145855" stroke-width="0.8" stroke-linecap="round" stroke-linejoin="round"/>
<path d="M277.146 143.135L261.914 156.166L266.437 175.646" stroke="#145855" stroke-width="0.8" stroke-linecap="round" stroke-linejoin="round"/>
<path d="M301.385 146.115L283.57 164.452L292.34 192.039" stroke="#145855" stroke-width="0.8" stroke-linecap="round" stroke-linejoin="round"/>
<path d="M325.784 155.063L309.052 174.116L318.298 197.84" stroke="#145855" stroke-width="0.8" stroke-linecap="round" stroke-linejoin="round"/>
</g>
<mask id="mask5_2_156" style="mask-type:alpha" maskUnits="userSpaceOnUse" x="207" y="181" width="84" height="73">
<path d="M277.478 206.374C256.279 189.113 222.176 182.305 207.775 181.059C213.353 197.58 230.889 234.315 256.409 249.082C288.309 267.54 303.977 227.95 277.478 206.374Z" fill="#849A72"/>
</mask>
<g mask="url(#mask5_2_156)">
<path d="M277.478 206.374C256.279 189.113 222.176 182.305 207.775 181.059C213.353 197.58 230.889 234.315 256.409 249.082C288.309 267.54 303.977 227.95 277.478 206.374Z" fill="#849A72"/>
<path d="M206.573 179.736C226.948 197.488 272.581 235.285 292.106 244.463" stroke="#145855" stroke-width="0.8" stroke-linecap="round" stroke-linejoin="round"/>
<path d="M242.7 185.974L224.146 194.587L224.296 217.91" stroke="#145855" stroke-width="0.8" stroke-linecap="round" stroke-linejoin="round"/>
<path d="M270.771 199.047L244.99 211.742L244.392 242.461" stroke="#145855" stroke-width="0.8" stroke-linecap="round" stroke-linejoin="round"/>
</g>
<mask id="mask6_2_156" style="mask-type:alpha" maskUnits="userSpaceOnUse" x="178" y="219" width="43" height="37">
<path d="M215.657 236.028C206.802 226.197 186.959 221.199 178.144 219.929C179.667 226.469 188.545 243.523 199.757 251.169C216.801 262.791 226.727 248.317 215.657 236.028Z" fill="#849A72"/>
</mask>
<g mask="url(#mask6_2_156)">
<path d="M215.657 236.028C206.802 226.197 186.959 221.199 178.144 219.929C179.667 226.469 188.545 243.523 199.757 251.169C216.801 262.791 226.727 248.317 215.657 236.028Z" fill="#849A72"/>
<path d="M177.093 219.17C184.67 226.68 203.928 243.826 220.346 252.335" stroke="#145855" stroke-width="0.8" stroke-linecap="round" stroke-linejoin="round"/>
<path d="M200.848 225.398L189.83 230.79L190.17 243.616" stroke="#145855" stroke-width="0.8" stroke-linecap="round" stroke-linejoin="round"/>
<path d="M214.053 233.152L202.104 240.051L202.241 253.965" stroke="#145855" stroke-width="0.8" stroke-linecap="round" stroke-linejoin="round"/>
</g>
<path d="M142.141 316.713C153.494 253.873 183.909 183.793 265.526 133.903" stroke="#849A72" stroke-width="1.5" stroke-linecap="round" stroke-linejoin="round"/>
<mask id="mask7_2_156" style="mask-type:alpha" maskUnits="userSpaceOnUse" x="75" y="304" width="65" height="35">
<path d="M99.1738 306.346C119.006 313.329 134.247 328.768 139.501 336.417C130.74 338.245 114.965 339.695 93.74 334.223C67.2084 327.384 70.2927 296.177 99.1738 306.346Z" fill="#849A72"/>
</mask>
<g mask="url(#mask7_2_156)">
<path d="M99.1738 306.346C119.006 313.329 134.247 328.768 139.501 336.417C130.74 338.245 114.965 339.695 93.74 334.223C67.2084 327.384 70.2927 296.177 99.1738 306.346Z" fill="#849A72"/>
<path d="M138.135 336.172C120.431 330.508 82.1969 317.472 70.8986 310.641" stroke="#145855" stroke-width="0.8" stroke-linecap="round" stroke-linejoin="round"/>
<path d="M88.0296 301.662L94.5077 321.019L79.5338 329.664" stroke="#145855" stroke-width="0.8" stroke-linecap="round" stroke-linejoin="round"/>
<path d="M107.476 306.817L109.923 326L93.3209 335.585" stroke="#145855" stroke-width="0.8" stroke-linecap="round" stroke-linejoin="round"/>
</g>
<mask id="mask8_2_156" style="mask-type:alpha" maskUnits="userSpaceOnUse" x="146" y="282" width="53" height="25">
<path d="M180.483 282.99C166.556 284.727 152.356 292.455 146.997 296.102C154.074 301.416 176.434 311.294 189.306 304.857C205.397 296.811 197.892 280.818 180.483 282.99Z" fill="#849A72"/>
</mask>
<g mask="url(#mask8_2_156)">
<path d="M180.483 282.99C166.556 284.727 152.356 292.455 146.997 296.102C154.074 301.416 176.434 311.294 189.306 304.857C205.397 296.811 197.892 280.818 180.483 282.99Z" fill="#849A72"/>
<path d="M146.282 295.519C158.119 295.426 185.468 294.934 200.174 293.705" stroke="#145855" stroke-width="0.8" stroke-linecap="round" stroke-linejoin="round"/>
<path d="M169.932 284.244L162.339 295.081L170.712 307.403" stroke="#145855" stroke-width="0.8" stroke-linecap="round" stroke-linejoin="round"/>
</g>
</svg>
